<?xml version="1.0" standalone="no"?>
<!DOCTYPE svg PUBLIC "-//W3C//DTD SVG 20010904//EN"
 "http://www.w3.org/TR/2001/REC-SVG-20010904/DTD/svg10.dtd">
<svg version="1.0" xmlns="http://www.w3.org/2000/svg"
 width="512.000000pt" height="512.000000pt" viewBox="0 0 512.000000 512.000000"
 preserveAspectRatio="xMidYMid meet">
<metadata>
Created by potrace 1.11, written by Peter Selinger 2001-2013
</metadata>
<g transform="translate(0.000000,512.000000) scale(0.100000,-0.100000)"
fill="#000000" stroke="none">
<path d="M715 4039 c-81 -11 -120 -25 -178 -63 -61 -40 -150 -129 -199 -196
-18 -25 -35 -47 -39 -50 -23 -19 -171 -298 -185 -350 -2 -8 -13 -41 -24 -73
-12 -32 -23 -77 -26 -100 -3 -23 -7 -47 -9 -53 -2 -9 6 -64 19 -119 1 -5 10
-28 21 -50 85 -179 308 -388 679 -635 76 -51 134 -95 129 -99 -6 -3 -30 -44
-55 -91 -63 -119 -59 -179 16 -258 35 -37 78 -61 122 -66 45 -6 202 31 231 54
37 29 48 25 23 -9 -75 -107 -74 -215 4 -287 57 -52 83 -58 197 -45 75 8 109
17 139 36 22 14 42 25 46 25 3 0 29 19 58 43 l51 42 -38 -53 c-20 -28 -37 -56
-37 -60 0 -5 -7 -23 -16 -41 -11 -23 -15 -50 -12 -91 5 -70 36 -116 105 -157
41 -24 56 -27 122 -25 134 4 180 18 263 84 l38 29 -16 -38 c-30 -72 -19 -134
36 -196 44 -49 84 -62 190 -59 82 2 103 7 155 32 33 16 76 42 95 58 l34 29 63
-28 c35 -16 94 -38 131 -50 77 -24 219 -33 241 -15 8 6 15 10 15 8 1 -2 13 1
27 6 41 16 118 109 130 158 6 24 15 44 19 44 4 0 32 -8 64 -19 199 -66 372 50
365 246 l-2 68 34 -3 c19 -2 72 -4 119 -4 75 -1 90 2 130 25 89 52 127 102
145 187 11 50 9 89 -10 163 -4 15 -3 27 1 28 5 0 32 3 59 5 114 10 196 58 237
137 36 72 27 183 -21 248 -16 21 -17 30 -8 37 20 17 119 82 124 82 2 0 56 38
119 85 166 123 364 326 364 371 0 8 3 14 8 14 7 0 15 16 43 85 21 50 24 104
15 230 -8 112 -61 214 -176 336 -14 14 -58 63 -99 108 -133 148 -277 233 -447
264 -99 19 -155 12 -334 -39 -107 -31 -294 -75 -338 -81 -105 -12 -346 -2
-532 23 -117 16 -249 10 -370 -18 -25 -5 -54 -11 -64 -14 -11 -2 -55 -15 -98
-30 l-79 -26 -62 25 c-93 37 -234 79 -262 78 -2 0 -19 5 -37 10 -60 17 -122
23 -238 23 -122 0 -157 -4 -260 -29 -36 -9 -76 -18 -90 -21 -14 -3 -54 -14
-90 -26 -75 -24 -148 -25 -229 -2 -58 16 -65 18 -141 52 -76 33 -241 83 -294
88 -27 3 -52 6 -55 8 -3 1 -28 -1 -56 -5z"/>
</g>
</svg>
